<svg enable-background="new 0 0 53 741.265" height="741.265" viewBox="0 0 53 741.265" width="53" xmlns="http://www.w3.org/2000/svg"><path d="m0 688.335h53v52.93h-53z" fill="#6b7685"/><path d="m39.691 707.341h-21.283c-1.535 0-2.779 1.244-2.779 2.781v13.639c0 1.537 1.244 2.779 2.779 2.779h6.474l4.169 4.17 4.168-4.17h6.475c1.535 0 2.779-1.242 2.779-2.779v-13.639c0-1.537-1.244-2.781-2.782-2.781" fill="#58b6e6"/><path d="m14.472 706.083-3.629.615c-1.514.256-2.532 1.688-2.275 3.205l2.28 13.441c.23 1.359 1.405 2.316 2.737 2.316.154 0 .311-.012.467-.039l2.03-.344c-.287-.438-.453-.959-.453-1.523v-3.807c-1.287-.332-2.185-1.553-2.07-2.922z" fill="#55667f"/><path d="m15.629 719.955v3.807c0 .564.167 1.086.453 1.523l4.353-.738 8.219-1.395 6.382-1.08c.364-.064.698-.191.993-.373l-5.174-.434-8.311-.693-6.452-.539c-.156-.014-.312-.039-.463-.078" fill="#3aa8e6"/><path d="m17.458 700.89c-1.43 0-2.645 1.098-2.766 2.551l-.221 2.645 17.356-2.943c.157-.023.313-.035.468-.035 1.331 0 2.507.959 2.737 2.313l.327 1.926h4.332c.582 0 1.123.182 1.57.484l.18-2.154c.127-1.527-1.008-2.875-2.539-3l-21.21-1.77c-.077-.013-.155-.017-.234-.017" fill="#90c859"/><path d="m39.691 707.341h-4.332l1.953 11.523c.193 1.146-.35 2.256-1.283 2.832l1.277.104c.076.008.154.01.232.01 1.432 0 2.646-1.096 2.768-2.549l.955-11.438c-.445-.302-.986-.482-1.57-.482" fill="#63e0df"/><path d="m32.296 703.101c-.153 0-.312.014-.468.039l-17.356 2.943-.914 10.949c-.114 1.369.783 2.588 2.07 2.92v-9.83c0-1.537 1.244-2.781 2.779-2.781h16.952l-.326-1.926c-.23-1.355-1.406-2.314-2.737-2.314" fill="#60a058"/><path d="m35.359 707.341h-16.951c-1.535 0-2.779 1.244-2.779 2.781v9.83c.151.039.307.063.467.08l6.452.539 8.31.688 5.176.438c.936-.576 1.479-1.686 1.281-2.832z" fill="#41dadf"/><circle cx="26.879" cy="717.069" fill="#fff" r="6.466"/><circle cx="26.878" cy="717.07" fill="#6b7684" r="4.127"/><path d="m37.296 710.242h-1.2c-.35 0-.686.139-.931.387l-.026.027c-.822.828-.236 2.236.93 2.236h.25c.203 0 .979-.014 1.175-.039 1.608-.217 1.424-2.611-.198-2.611z" fill="#fff"/><path d="m0 550.767h52.928v52.93h-52.928z" fill="#616571"/><path d="m25.852 573.535h6.246l.713-3.471h-4.353c-3.101 0-5.692.77-7.773 2.309-1.926 1.424-3.225 3.742-3.9 6.945l-.473 2.756 17.823.004.555-2.699-10.13-.002z" fill="#f4f4f4" opacity=".2"/><path d="m35.417 590.111.548-2.74h-23.477l-.555 2.74z" fill="#f4f4f4" opacity=".5"/><path d="m36.493 584.81 2.463-12.158-3.929-.002 1.438-7.332-8.066-.002c-3.545 0-6.592.926-9.063 2.748-2.584 1.912-4.102 4.965-4.818 9.121l-1.518 7.625zm-19.427-7.135c.589-3.438 1.902-5.93 3.902-7.408 1.985-1.471 4.485-2.215 7.429-2.215h4.826l-1.127 5.482h-6.245l-.691 3.117 10.09-.006-1.116 5.43-17.823-.002z" fill="#f4f4f4"/><path d="m0 413.197h52.928v52.926h-52.928z" fill="#f26a38"/><path d="m10.692 427.154c.157.006.315.018.471.018h11.247.489c-.704 8.857-1.405 17.662-2.105 26.471-.025.002-.052.014-.076.018-.386-.898-.774-1.799-1.16-2.699-.506-1.189-1.018-2.365-1.506-3.555-.117-.279-.255-.396-.577-.396-2.13.021-4.261.008-6.392.012-.131 0-.261.021-.391.031zm3.533 9.67c0 2.117.005 4.232-.007 6.35-.001.318.08.441.417.439.828-.023 1.658-.021 2.486-.01.291.012.385-.09.383-.381-.008-4.229-.008-8.471.001-12.703.001-.324-.125-.395-.416-.391-.803.016-1.605.021-2.407-.002-.361-.012-.469.098-.465.463.019 2.078.008 4.157.008 6.235" fill="#fff"/><path d="m21.835 453.646c1.052-8.811 2.103-17.625 3.156-26.453h17.247v19.826h-.521c-4.982 0-9.975.004-14.958-.008-.344-.004-.539.105-.724.395-1.292 1.98-2.602 3.953-3.904 5.93-.071.109-.146.217-.218.326-.026-.006-.054-.01-.078-.016m11.567-10.051c3.779.01 6.83-2.975 6.84-6.688.01-3.74-3.002-6.758-6.758-6.771-3.805-.012-6.855 2.975-6.861 6.709-.005 3.735 3.016 6.744 6.779 6.75" fill="#fff"/><path d="m37.045 436.898c.006 1.967-1.643 3.645-3.594 3.658-1.957.018-3.639-1.684-3.631-3.664.01-1.973 1.668-3.643 3.613-3.641 1.948.004 3.606 1.678 3.612 3.647" fill="#fff"/><path d="m0 275.625h52.928v52.928h-52.928z" fill="#f3ad2d"/><g fill="#353535"><path d="m23.213 303.105c.5-.549 1.083-.938 1.742-1.179v-4.705c-1.954.321-3.629 1.219-5.022 2.702-1.777 1.893-2.668 4.167-2.668 6.826h4.564c.001-1.415.462-2.629 1.384-3.644"/><path d="m24.955 311.313h-7.69v2.284 2.281h1.813 3.245 2.632z"/><path d="m33.242 299.815c-1.823-1.75-4.02-2.66-6.591-2.731-.159 0-.315.003-.47.01v4.572c.202-.017.408-.024.622-.019 1.287.044 2.386.533 3.298 1.469.916.936 1.381 2.046 1.396 3.332v.022.128l-.024.128c-.07 1.271-.568 2.354-1.498 3.247-.931.893-2.037 1.339-3.323 1.339h-.47v4.565h.622c2.499-.043 4.646-.954 6.438-2.732 1.793-1.781 2.727-3.919 2.797-6.419v-.02-.107-.128-.129c-.041-2.601-.976-4.776-2.797-6.527"/><path d="m24.955 288.597h-8.067v14.206c.847-2.494 2.426-4.401 4.744-5.723v-3.74h3.323z"/><path d="m26.181 288.598h8.68v4.743h-8.68z"/></g><path d="m0 138.054h52.93v52.927h-52.93z" fill="#2caae2"/><path d="m26.462 178.839c-7.896 0-14.317-6.422-14.317-14.318 0-7.895 6.421-14.318 14.317-14.318s14.319 6.424 14.319 14.318c0 7.896-6.424 14.318-14.319 14.318m0-21.228c-3.81 0-6.91 3.098-6.91 6.91s3.1 6.91 6.91 6.91c3.812 0 6.913-3.099 6.913-6.91s-3.102-6.91-6.913-6.91" fill="#fff"/><path d="m.035 0h52.93v52.927h-52.93z" fill="#2eb8d7"/><path d="m11.046 16.15h25.749v25.783h-25.749z" fill="#333"/><path d="m16.203 10.993v15.47h10.28v10.313h15.47v-25.783z" fill="#28889c"/><path d="m21.292 16.15v5.157h10.347v10.313h5.156v-15.47z" fill="#fff"/></svg>